<svg width="135" height="135" viewBox="0 0 135 135" fill="none" xmlns="http://www.w3.org/2000/svg">
<rect width="135" height="135" rx="30" fill="white"/>
<g clip-path="url(#clip0_635_147)">
<path d="M99.2174 50.8392C98.1536 50.474 97.0812 50.1348 96 49.8218C96.1797 49.0914 96.3464 48.358 96.5 47.6218C98.9348 35.7957 97.3435 26.2653 91.9 23.1262C86.6826 20.1175 78.1522 23.2566 69.5348 30.7566C68.6855 31.4957 67.8565 32.2566 67.0478 33.0392C66.5058 32.5175 65.9551 32.0073 65.3956 31.5088C56.3609 23.4957 47.3043 20.1218 41.8696 23.2609C36.6652 26.2783 35.1217 35.2392 37.3043 46.4479C37.5275 47.558 37.7739 48.6624 38.0435 49.7609C36.7696 50.1262 35.5304 50.5131 34.3478 50.9261C23.7609 54.6218 17 60.4044 17 66.4044C17 72.6001 24.2609 78.8175 35.287 82.5783C36.1797 82.8856 37.0812 83.1696 37.9913 83.4305C37.6957 84.6102 37.4348 85.7986 37.2087 86.9957C35.113 98.0088 36.7478 106.757 41.9478 109.757C47.313 112.852 56.3217 109.67 65.1 102C65.7957 101.397 66.4913 100.757 67.187 100.078C68.0623 100.928 68.9609 101.751 69.8826 102.548C78.387 109.861 86.7783 112.809 91.9696 109.809C97.3391 106.7 99.0826 97.3044 96.8174 85.874C96.6435 85.0044 96.4435 84.1146 96.2174 83.2044C96.8493 83.0189 97.4696 82.8261 98.0783 82.6261C109.543 78.8261 117 72.6827 117 66.4044C117 60.3783 110.022 54.5566 99.2174 50.8392V50.8392ZM72.3478 33.9827C79.7304 27.5566 86.6304 25.0262 89.7826 26.8348C93.1304 28.7653 94.4261 36.5522 92.3217 46.7653C92.1855 47.4319 92.0362 48.0943 91.8739 48.7522C87.4675 47.7534 82.9997 47.0475 78.5 46.6392C75.9216 42.9357 73.0964 39.4103 70.0435 36.087C70.7913 35.3682 71.5565 34.6667 72.3391 33.9827H72.3478ZM46.5217 71.5218C47.429 73.2725 48.3754 74.9972 49.3609 76.6957C50.3667 78.4348 51.413 80.1493 52.5 81.8392C49.4043 81.5045 46.3277 81.0111 43.2826 80.3609C44.1696 77.5044 45.2565 74.5348 46.5261 71.5261L46.5217 71.5218ZM46.5217 61.4783C45.2783 58.5305 44.2174 55.6305 43.3478 52.8262C46.1957 52.187 49.2391 51.6653 52.4087 51.2696C51.3478 52.9218 50.3261 54.603 49.3435 56.3131C48.358 58.0117 47.4159 59.7334 46.5174 61.4783H46.5217ZM48.7913 66.5044C50.1072 63.7653 51.5275 61.0783 53.0522 58.4435C54.5652 55.8059 56.1797 53.2334 57.8957 50.7261C60.8696 50.5001 63.9174 50.3783 67 50.3783C70.0957 50.3783 73.1478 50.5001 76.1217 50.7261C77.8174 53.2334 79.4232 55.7986 80.9391 58.4218C82.4638 61.0479 83.9014 63.7218 85.2522 66.4435C83.9188 69.1914 82.487 71.8899 80.9565 74.5392C79.4406 77.1711 77.8406 79.7508 76.1565 82.2783C73.1913 82.4957 70.1261 82.6001 67 82.6001C63.887 82.6001 60.8609 82.5044 57.9478 82.3131C56.2203 79.7914 54.5913 77.2073 53.0609 74.5609C51.5362 71.9232 50.113 69.2363 48.7913 66.5001V66.5044ZM84.6609 76.6783C85.6638 74.9305 86.629 73.1624 87.5565 71.374C88.827 74.2472 89.9473 77.1845 90.913 80.174C87.8341 80.8649 84.7211 81.3946 81.587 81.7609C82.642 80.0856 83.6652 78.3899 84.6565 76.674L84.6609 76.6783ZM87.513 61.4827C86.5913 59.7319 85.6348 57.9986 84.6435 56.2827C83.6638 54.5957 82.6493 52.929 81.6 51.2827C84.787 51.687 87.8435 52.2218 90.7174 52.8783C89.7947 55.7999 88.7252 58.6731 87.513 61.487V61.4827ZM67.0435 39.1522C69.1242 41.4197 71.089 43.7908 72.9304 46.2566C68.9942 46.0682 65.0551 46.0682 61.113 46.2566C63.0565 43.6914 65.0478 41.3088 67.0478 39.1522H67.0435ZM44.0174 26.9566C47.3652 25.0218 54.7565 27.7827 62.5565 34.7088C63.0565 35.1522 63.5565 35.6131 64.0565 36.0914C60.9859 39.4151 58.1391 42.9388 55.5348 46.6392C51.0483 47.042 46.5926 47.7347 42.1957 48.7131C41.9406 47.6928 41.7116 46.6638 41.5087 45.6262V45.6348C39.6261 36.0261 40.8739 28.7827 44.0174 26.9653V26.9566ZM39.1304 79.3175C38.3043 79.0798 37.4841 78.8232 36.6696 78.5479C32.4322 77.2149 28.4764 75.1132 25 72.3479C24.0052 71.664 23.1612 70.7833 22.5203 69.7603C21.8794 68.7372 21.4552 67.5936 21.2739 66.4001C21.2739 62.7609 26.7 58.1175 35.7522 54.9653C36.8913 54.5653 38.0391 54.203 39.1957 53.8783C40.5388 58.1897 42.1656 62.4076 44.0652 66.5044C42.1415 70.6608 40.4945 74.9396 39.1348 79.3131L39.1304 79.3175ZM62.287 98.7957C59.016 101.796 55.2209 104.169 51.0913 105.796C50.0035 106.317 48.8203 106.61 47.6149 106.657C46.4094 106.703 45.2073 106.502 44.0826 106.065C40.9304 104.239 39.6174 97.2218 41.4043 87.8044C41.6188 86.6885 41.8623 85.5812 42.1348 84.4827C46.5783 85.4361 51.0814 86.0869 55.613 86.4305C58.2385 90.1509 61.1055 93.6947 64.1956 97.0392C63.5754 97.6392 62.9406 98.2233 62.2913 98.7914L62.287 98.7957ZM67.1652 93.9609C65.1391 91.7783 63.1217 89.3609 61.1478 86.7609C63.0609 86.8363 65.0116 86.874 67 86.874C69.0377 86.874 71.0493 86.8305 73.0348 86.7435C71.2028 89.248 69.2437 91.657 67.1652 93.9609V93.9609ZM93.1087 99.9044C93.0166 101.108 92.6786 102.28 92.1155 103.348C91.5523 104.416 90.7761 105.357 89.8348 106.113C86.6826 107.939 79.9435 105.565 72.6739 99.3131C71.842 98.6001 71.0043 97.8377 70.1609 97.0261C73.1916 93.6711 75.9921 90.1152 78.5435 86.3827C83.1005 85.9984 87.6257 85.3011 92.087 84.2957C92.2899 85.1189 92.4696 85.9247 92.6261 86.7131C93.5937 91.0451 93.7559 95.5181 93.1043 99.9088L93.1087 99.9044ZM96.7348 78.5696C96.1826 78.7522 95.6217 78.9261 95.0478 79.0914C93.6503 74.7596 91.9594 70.5281 89.987 66.4261C91.8866 62.38 93.5134 58.2113 94.8565 53.9479C95.8739 54.2392 96.8696 54.5566 97.8261 54.8827C107.087 58.0653 112.73 62.7783 112.73 66.4044C112.73 70.274 106.63 75.2914 96.7304 78.5696H96.7348Z" fill="url(#paint0_linear_635_147)"/>
</g>
<path fill-rule="evenodd" clip-rule="evenodd" d="M56.8125 60.8333C56.8125 57.6117 59.6107 55 63.0625 55H72.75C76.2018 55 79 57.6117 79 60.8333V70.1667C79 73.3883 76.2018 76 72.75 76H55.25C54.7906 76 54.3683 75.7648 54.1501 75.3876C53.9318 75.0103 53.9529 74.5517 54.2049 74.1932L56.1977 71.3591C56.5988 70.7886 56.8125 70.1212 56.8125 69.4388V60.8333ZM63.0625 57.3333C60.9914 57.3333 59.3125 58.9003 59.3125 60.8333V69.4388C59.3125 70.5761 58.9563 71.6885 58.2878 72.6393L57.5654 73.6667H72.75C74.8211 73.6667 76.5 72.0997 76.5 70.1667V60.8333C76.5 58.9003 74.8211 57.3333 72.75 57.3333H63.0625Z" fill="#2A48E7"/>
<path d="M64.0675 64.278L65.4325 63.771L65.7705 64.616L64.3145 65.175L65.1725 66.605L64.4185 67.086L63.6125 65.799L62.8325 67.086L62.0525 66.605L62.9235 65.175L61.4545 64.616L61.7795 63.771L63.1575 64.278V62.9H64.0675V64.278ZM68.9552 64.278L70.3202 63.771L70.6582 64.616L69.2022 65.175L70.0602 66.605L69.3062 67.086L68.5002 65.799L67.7202 67.086L66.9402 66.605L67.8112 65.175L66.3422 64.616L66.6672 63.771L68.0452 64.278V62.9H68.9552V64.278ZM73.8428 64.278L75.2078 63.771L75.5458 64.616L74.0898 65.175L74.9478 66.605L74.1938 67.086L73.3878 65.799L72.6078 67.086L71.8278 66.605L72.6988 65.175L71.2298 64.616L71.5548 63.771L72.9328 64.278V62.9H73.8428V64.278Z" fill="#F61414"/>
<defs>
<linearGradient id="paint0_linear_635_147" x1="67" y1="21.9941" x2="67" y2="110.97" gradientUnits="userSpaceOnUse">
<stop stop-color="#D40BF5"/>
<stop offset="1" stop-color="#032705"/>
</linearGradient>
<clipPath id="clip0_635_147">
<rect width="100" height="88.9716" fill="white" transform="translate(17 22)"/>
</clipPath>
</defs>
</svg>
